<mxfile host="app.diagrams.net" modified="2024-04-10T06:41:54.934Z" agent="Mozilla/5.0 (Windows NT 10.0; Win64; x64) AppleWebKit/537.36 (KHTML, like Gecko) Chrome/123.0.0.0 Safari/537.36" etag="YXCa7hMNdQcsW8aI_p5_" version="24.2.2" type="github">
  <diagram name="第 1 页" id="6ed5NmzjV2YYQTqXpcC6">
    <mxGraphModel dx="1434" dy="738" grid="0" gridSize="10" guides="1" tooltips="1" connect="1" arrows="1" fold="1" page="1" pageScale="1" pageWidth="3300" pageHeight="4681" math="0" shadow="0">
      <root>
        <mxCell id="0" />
        <mxCell id="1" parent="0" />
        <mxCell id="g6NrzWlmBeKN7RQ3jyiY-1" value="&lt;font style=&quot;&quot;&gt;&lt;b style=&quot;&quot;&gt;&lt;font style=&quot;font-size: 20px;&quot;&gt;现状概览&lt;/font&gt;&lt;/b&gt;&lt;br&gt;&lt;font style=&quot;font-size: 12px;&quot;&gt;款式数、销售额、单款产出&lt;/font&gt;&lt;br&gt;&lt;/font&gt;" style="rounded=0;whiteSpace=wrap;html=1;" parent="1" vertex="1">
          <mxGeometry x="222" y="77" width="151" height="96" as="geometry" />
        </mxCell>
        <mxCell id="g6NrzWlmBeKN7RQ3jyiY-2" value="&lt;b&gt;&lt;font style=&quot;font-size: 24px;&quot;&gt;分析思路：&lt;/font&gt;&lt;/b&gt;" style="text;html=1;align=center;verticalAlign=middle;resizable=0;points=[];autosize=1;strokeColor=none;fillColor=none;" parent="1" vertex="1">
          <mxGeometry x="90" y="115" width="140" height="40" as="geometry" />
        </mxCell>
        <mxCell id="g6NrzWlmBeKN7RQ3jyiY-3" value="" style="shape=flexArrow;endArrow=classic;html=1;rounded=0;strokeColor=#000000;" parent="1" edge="1">
          <mxGeometry width="50" height="50" relative="1" as="geometry">
            <mxPoint x="376" y="125" as="sourcePoint" />
            <mxPoint x="409" y="125" as="targetPoint" />
          </mxGeometry>
        </mxCell>
        <mxCell id="g6NrzWlmBeKN7RQ3jyiY-6" value="" style="strokeWidth=2;html=1;shape=mxgraph.flowchart.annotation_2;align=left;labelPosition=right;pointerEvents=1;" parent="1" vertex="1">
          <mxGeometry x="464" y="25" width="50" height="175.5" as="geometry" />
        </mxCell>
        <mxCell id="g6NrzWlmBeKN7RQ3jyiY-7" value="&lt;font style=&quot;font-size: 14px;&quot;&gt;上架款式大类品类分布与&lt;/font&gt;&lt;span style=&quot;font-size: 14px;&quot;&gt;销售产出&lt;/span&gt;" style="text;html=1;strokeColor=none;fillColor=none;align=center;verticalAlign=middle;whiteSpace=wrap;rounded=0;" parent="1" vertex="1">
          <mxGeometry x="505" y="25" width="120" height="50" as="geometry" />
        </mxCell>
        <mxCell id="g6NrzWlmBeKN7RQ3jyiY-8" value="&lt;font style=&quot;font-size: 14px;&quot;&gt;饰品、玉石与黄金的不同款式数量与销售产出情况&lt;/font&gt;" style="text;html=1;strokeColor=none;fillColor=none;align=center;verticalAlign=middle;whiteSpace=wrap;rounded=0;" parent="1" vertex="1">
          <mxGeometry x="502" y="85.5" width="120" height="50" as="geometry" />
        </mxCell>
        <mxCell id="g6NrzWlmBeKN7RQ3jyiY-10" value="&lt;font style=&quot;font-size: 14px;&quot;&gt;价位段、动销分析&lt;/font&gt;" style="text;html=1;align=center;verticalAlign=middle;resizable=0;points=[];autosize=1;strokeColor=none;fillColor=none;" parent="1" vertex="1">
          <mxGeometry x="495" y="139" width="140" height="30" as="geometry" />
        </mxCell>
        <mxCell id="g6NrzWlmBeKN7RQ3jyiY-11" value="&lt;b&gt;&lt;font style=&quot;font-size: 18px;&quot;&gt;货&lt;/font&gt;&lt;/b&gt;" style="ellipse;whiteSpace=wrap;html=1;aspect=fixed;" parent="1" vertex="1">
          <mxGeometry x="411" y="85.5" width="66" height="66" as="geometry" />
        </mxCell>
        <mxCell id="g6NrzWlmBeKN7RQ3jyiY-13" value="&lt;b&gt;&lt;font style=&quot;font-size: 18px;&quot;&gt;人&lt;/font&gt;&lt;/b&gt;" style="ellipse;whiteSpace=wrap;html=1;aspect=fixed;" parent="1" vertex="1">
          <mxGeometry x="662" y="85.5" width="66" height="66" as="geometry" />
        </mxCell>
        <mxCell id="g6NrzWlmBeKN7RQ3jyiY-14" value="" style="shape=flexArrow;endArrow=classic;html=1;rounded=0;strokeColor=#000000;" parent="1" edge="1">
          <mxGeometry width="50" height="50" relative="1" as="geometry">
            <mxPoint x="625" y="119.91" as="sourcePoint" />
            <mxPoint x="657" y="120.5" as="targetPoint" />
          </mxGeometry>
        </mxCell>
        <mxCell id="g6NrzWlmBeKN7RQ3jyiY-15" value="" style="strokeWidth=2;html=1;shape=mxgraph.flowchart.annotation_2;align=left;labelPosition=right;pointerEvents=1;" parent="1" vertex="1">
          <mxGeometry x="982" y="25" width="50" height="170" as="geometry" />
        </mxCell>
        <mxCell id="g6NrzWlmBeKN7RQ3jyiY-16" value="&lt;font style=&quot;font-size: 14px;&quot;&gt;上新完成率&lt;/font&gt;" style="text;html=1;align=center;verticalAlign=middle;resizable=0;points=[];autosize=1;strokeColor=none;fillColor=none;" parent="1" vertex="1">
          <mxGeometry x="763" y="55.5" width="90" height="30" as="geometry" />
        </mxCell>
        <mxCell id="g6NrzWlmBeKN7RQ3jyiY-17" value="&lt;font style=&quot;font-size: 14px;&quot;&gt;上新效率&lt;/font&gt;" style="text;html=1;align=center;verticalAlign=middle;resizable=0;points=[];autosize=1;strokeColor=none;fillColor=none;" parent="1" vertex="1">
          <mxGeometry x="763" y="103.5" width="80" height="30" as="geometry" />
        </mxCell>
        <mxCell id="g6NrzWlmBeKN7RQ3jyiY-20" value="&lt;b&gt;&lt;font style=&quot;font-size: 18px;&quot;&gt;场&lt;/font&gt;&lt;/b&gt;" style="ellipse;whiteSpace=wrap;html=1;aspect=fixed;" parent="1" vertex="1">
          <mxGeometry x="906" y="84" width="69" height="69" as="geometry" />
        </mxCell>
        <mxCell id="g6NrzWlmBeKN7RQ3jyiY-22" value="" style="shape=flexArrow;endArrow=classic;html=1;rounded=0;strokeColor=#000000;" parent="1" edge="1">
          <mxGeometry width="50" height="50" relative="1" as="geometry">
            <mxPoint x="853" y="120.41" as="sourcePoint" />
            <mxPoint x="897" y="121" as="targetPoint" />
          </mxGeometry>
        </mxCell>
        <mxCell id="g6NrzWlmBeKN7RQ3jyiY-24" value="" style="strokeWidth=2;html=1;shape=mxgraph.flowchart.annotation_2;align=left;labelPosition=right;pointerEvents=1;" parent="1" vertex="1">
          <mxGeometry x="728" y="27" width="50" height="173.5" as="geometry" />
        </mxCell>
        <mxCell id="g6NrzWlmBeKN7RQ3jyiY-25" value="&lt;font style=&quot;font-size: 14px;&quot;&gt;营销活动&lt;/font&gt;" style="text;html=1;align=center;verticalAlign=middle;resizable=0;points=[];autosize=1;strokeColor=none;fillColor=none;" parent="1" vertex="1">
          <mxGeometry x="1021" y="55.5" width="80" height="30" as="geometry" />
        </mxCell>
        <mxCell id="g6NrzWlmBeKN7RQ3jyiY-26" value="&lt;font style=&quot;font-size: 14px;&quot;&gt;触达场景&lt;/font&gt;" style="text;html=1;align=center;verticalAlign=middle;resizable=0;points=[];autosize=1;strokeColor=none;fillColor=none;" parent="1" vertex="1">
          <mxGeometry x="1021" y="87.5" width="80" height="30" as="geometry" />
        </mxCell>
        <mxCell id="g6NrzWlmBeKN7RQ3jyiY-27" value="&lt;font style=&quot;font-size: 14px;&quot;&gt;货盘结构&lt;/font&gt;" style="text;html=1;align=center;verticalAlign=middle;resizable=0;points=[];autosize=1;strokeColor=none;fillColor=none;" parent="1" vertex="1">
          <mxGeometry x="1021" y="132.5" width="80" height="30" as="geometry" />
        </mxCell>
        <mxCell id="sLpgAjXqGDLVRCGKef-D-1" value="&lt;font style=&quot;font-size: 14px;&quot;&gt;售罄和滞销货品&lt;/font&gt;" style="text;html=1;align=center;verticalAlign=middle;resizable=0;points=[];autosize=1;strokeColor=none;fillColor=none;" vertex="1" parent="1">
          <mxGeometry x="502" y="171.5" width="116" height="29" as="geometry" />
        </mxCell>
      </root>
    </mxGraphModel>
  </diagram>
</mxfile>
